HIERARCHY
ROOT Hips
{
	OFFSET 0.000000 0.000000 0.000000
	CHANNELS 6 Xposition Yposition Zposition Zrotation Yrotation Xrotation 
	JOINT LHipJoint
	{
		OFFSET 0.000000 0.000000 0.000000
		CHANNELS 3 Zrotation Yrotation Xrotation
		JOINT LeftUpLeg
		{
			OFFSET 1.363060 -1.794630 0.839290
			CHANNELS 3 Zrotation Yrotation Xrotation
			JOINT LeftLeg
			{
				OFFSET 2.448110 -6.726130 0.000000
				CHANNELS 3 Zrotation Yrotation Xrotation
				JOINT LeftFoot
				{
					OFFSET 2.562200 -7.039590 0.000000
					CHANNELS 3 Zrotation Yrotation Xrotation
					JOINT LeftToeBase
					{
						OFFSET 0.157640 -0.433110 2.322550
						CHANNELS 3 Zrotation Yrotation Xrotation
						End Site
						{
							OFFSET 0.000000 0.000000 0.000000
						}
					}
				}
			}
		}
	}
	JOINT RHipJoint
	{
		OFFSET 0.000000 0.000000 0.000000
		CHANNELS 3 Zrotation Yrotation Xrotation
		JOINT RightUpLeg
		{
			OFFSET -1.305520 -1.794630 0.839290
			CHANNELS 3 Zrotation Yrotation Xrotation
			JOINT RightLeg
			{
				OFFSET -2.542530 -6.985550 0.000000
				CHANNELS 3 Zrotation Yrotation Xrotation
				JOINT RightFoot
				{
					OFFSET -2.568260 -7.056230 0.000000
					CHANNELS 3 Zrotation Yrotation Xrotation
					JOINT RightToeBase
					{
						OFFSET -0.164730 -0.452590 2.363150
						CHANNELS 3 Zrotation Yrotation Xrotation
						End Site
						{
							OFFSET 0.000000 0.000000 0.000000
						}
					}
				}
			}
		}
	}
	JOINT LowerBack
	{
		OFFSET 0.000000 0.000000 0.000000
		CHANNELS 3 Zrotation Yrotation Xrotation
		JOINT Spine
		{
			OFFSET 0.028270 2.035590 -0.193380
			CHANNELS 3 Zrotation Yrotation Xrotation
			JOINT Spine1
			{
				OFFSET 0.056720 2.048850 -0.042750
				CHANNELS 3 Zrotation Yrotation Xrotation
				JOINT Neck
				{
					OFFSET 0.000000 0.000000 0.000000
					CHANNELS 3 Zrotation Yrotation Xrotation
					JOINT Neck1
					{
						OFFSET -0.054170 1.746240 0.172020
						CHANNELS 3 Zrotation Yrotation Xrotation
						JOINT Head
						{
							OFFSET 0.104070 1.761360 -0.123970
							CHANNELS 3 Zrotation Yrotation Xrotation
							End Site
							{
								OFFSET 0.000000 0.000000 0.000000
							}
						}
					}
				}
				JOINT LeftShoulder
				{
					OFFSET 0.000000 0.000000 0.000000
					CHANNELS 3 Zrotation Yrotation Xrotation
					JOINT LeftArm
					{
						OFFSET 3.362410 1.200890 -0.311210
						CHANNELS 3 Zrotation Yrotation Xrotation
						JOINT LeftForeArm
						{
							OFFSET 4.983000 -0.000000 -0.000000
							CHANNELS 3 Zrotation Yrotation Xrotation
							JOINT LeftHand
							{
								OFFSET 3.483560 -0.000000 -0.000000
								CHANNELS 3 Zrotation Yrotation Xrotation
								JOINT LeftFingerBase
								{
									OFFSET 0.000000 0.000000 0.000000
									CHANNELS 3 Zrotation Yrotation Xrotation
									JOINT LeftHandIndex1
									{
										OFFSET 0.715260 -0.000000 -0.000000
										CHANNELS 3 Zrotation Yrotation Xrotation
										End Site
										{
											OFFSET 0.000000 0.000000 0.000000
										}
									}
								}
								JOINT LThumb
								{
									OFFSET 0.000000 0.000000 0.000000
									CHANNELS 3 Zrotation Yrotation Xrotation
									End Site
									{
										OFFSET 0.000000 0.000000 0.000000
									}
								}
							}
						}
					}
				}
				JOINT RightShoulder
				{
					OFFSET 0.000000 0.000000 0.000000
					CHANNELS 3 Zrotation Yrotation Xrotation
					JOINT RightArm
					{
						OFFSET -3.136600 1.374050 -0.404650
						CHANNELS 3 Zrotation Yrotation Xrotation
						JOINT RightForeArm
						{
							OFFSET -5.241900 -0.000000 -0.000000
							CHANNELS 3 Zrotation Yrotation Xrotation
							JOINT RightHand
							{
								OFFSET -3.444170 -0.000000 -0.000000
								CHANNELS 3 Zrotation Yrotation Xrotation
								JOINT RightFingerBase
								{
									OFFSET 0.000000 0.000000 0.000000
									CHANNELS 3 Zrotation Yrotation Xrotation
									JOINT RightHandIndex1
									{
										OFFSET -0.622530 -0.000000 -0.000000
										CHANNELS 3 Zrotation Yrotation Xrotation
										End Site
										{
											OFFSET 0.000000 0.000000 0.000000
										}
									}
								}
								JOINT RThumb
								{
									OFFSET 0.000000 0.000000 0.000000
									CHANNELS 3 Zrotation Yrotation Xrotation
									End Site
									{
										OFFSET 0.000000 0.000000 0.000000
									}
								}
							}
						}
					}
				}
			}
		}
	}
}
MOTION
Frames: 5
Frame Time: 0.033333
-1.682236 17.316774 23.789267 -0.998395 -14.987654 13.581592 -6.928093 3.169734 11.636064 -7.770406 -25.695245 -14.029289 39.857556 -29.028305 -28.680794 -19.352791 -3.185203 77.033851 0.000000 0.000000 0.000000 9.051946 -11.678426 -3.552932 17.287675 20.133378 -16.784349 -12.320779 -12.006916 70.206853 10.875937 -4.182229 -16.683781 0.000000 0.000000 0.000000 -3.754958 3.970128 3.660970 -1.522808 3.063788 1.616324 6.725618 2.889906 -6.982159 5.774266 0.281169 -7.870697 1.227737 0.380040 -5.631513 0.000000 0.000000 0.000000 -2.809918 9.675629 17.944127 -80.664540 -4.779198 -22.697216 -145.428473 -73.948096 179.119249 9.897358 -8.767793 -0.455188 10.033596 -8.687671 0.000000 0.000000 0.000000 0.000000 0.000000 0.000000 0.000000 4.486640 -12.872758 5.632583 51.244177 6.842664 22.853475 22.244962 73.010823 0.554295 0.374361 12.921036 0.274603 0.365443 12.929388 0.000000 0.000000 0.000000 0.000000 0.000000 0.000000 0.000000 
-1.702703 17.337965 23.980840 -0.345973 -14.412405 13.065920 -5.010404 2.667750 10.541826 -11.663627 -26.269867 -11.512801 39.320625 -29.554000 -26.935926 -18.315067 -4.723768 73.758016 0.000000 0.000000 0.000000 8.315244 -10.345282 -3.936124 16.604214 18.470976 -15.162965 -11.308939 -13.316736 68.913140 10.830576 -4.712634 -15.853334 0.000000 0.000000 0.000000 -4.329531 3.784886 4.461516 -1.548757 2.828930 0.888850 6.364281 2.635468 -6.158383 5.784968 0.281750 -7.659591 1.406924 0.376970 -5.110114 0.000000 0.000000 0.000000 -2.175271 9.236250 18.057033 -81.068674 -4.682603 -21.816445 -145.505895 -74.765079 179.095345 10.401631 -9.334284 -0.468152 10.548329 -9.246926 0.000000 0.000000 0.000000 0.000000 0.000000 0.000000 0.000000 3.370833 -12.903604 5.438183 53.183553 7.451879 21.973382 24.685349 71.754701 0.512425 0.585746 12.442467 0.254085 0.578671 12.450248 0.000000 0.000000 0.000000 0.000000 0.000000 0.000000 0.000000 
-1.721413 17.361753 24.170509 0.252981 -13.827877 12.568197 -3.368165 2.252161 9.504046 -15.125898 -26.557435 -9.266061 38.357140 -29.934815 -25.102497 -17.032386 -5.971717 70.531396 0.000000 0.000000 0.000000 7.715586 -9.021631 -4.233133 15.779131 16.800793 -13.587727 -10.211297 -14.569236 67.484400 10.714167 -5.152756 -14.985092 0.000000 0.000000 0.000000 -4.817768 3.556820 5.187936 -1.489350 2.559453 0.229597 5.919203 2.374783 -5.401307 5.763464 0.159609 -7.424644 1.173785 0.281344 -3.690277 0.000000 0.000000 0.000000 -1.670574 8.903118 18.144641 -81.380884 -4.482222 -20.849762 -145.576952 -75.693403 179.077861 10.891261 -9.920239 -0.477949 11.048748 -9.825176 0.000000 0.000000 0.000000 0.000000 0.000000 0.000000 0.000000 2.326369 -12.904764 5.262636 54.997758 8.068578 21.041090 27.133302 70.421802 0.463060 0.751153 11.853504 0.229791 0.745282 11.860516 0.000000 0.000000 0.000000 0.000000 0.000000 0.000000 0.000000 
-1.737154 17.387621 24.357550 0.799499 -13.223765 12.111832 -2.015351 1.924957 8.551418 -18.093133 -26.615051 -7.354434 37.006791 -30.148445 -23.225389 -15.608323 -6.919471 67.410881 0.000000 0.000000 0.000000 7.263197 -7.756567 -4.423927 14.813400 15.165500 -12.113761 -9.042959 -15.738580 65.953497 10.537525 -5.501613 -14.092889 0.000000 0.000000 0.000000 -5.216311 3.339136 5.803955 -1.422359 2.295604 -0.199722 5.465109 2.134967 -4.902060 5.801765 0.095876 -7.234541 1.096164 0.230401 -2.786843 0.000000 0.000000 0.000000 -1.291674 8.631000 18.209944 -81.611659 -4.157545 -19.698706 -145.706344 -76.742417 179.071338 11.341770 -10.524239 -0.482270 11.509978 -10.421327 0.000000 0.000000 0.000000 0.000000 0.000000 0.000000 0.000000 1.350543 -13.035175 5.062366 56.638952 8.661187 20.097451 29.692923 68.998586 0.408616 0.886656 11.149146 0.202926 0.881588 11.155295 0.000000 0.000000 0.000000 0.000000 0.000000 0.000000 0.000000 
-1.749922 17.415050 24.541282 1.291173 -12.623968 11.727126 -0.958664 1.688546 7.720207 -20.516949 -26.520897 -5.839128 35.351509 -30.185864 -21.321346 -14.138553 -7.605220 64.393963 0.000000 0.000000 0.000000 6.962221 -6.578986 -4.495344 13.715223 13.612717 -10.790944 -7.813632 -16.803276 64.356166 10.312385 -5.758450 -13.199191 0.000000 0.000000 0.000000 -5.528227 3.133433 6.281854 -1.359902 2.042029 -0.435846 5.014763 1.917793 -4.638069 5.911812 0.084814 -7.068386 1.149895 0.215943 -2.373173 0.000000 0.000000 0.000000 -1.045775 8.410447 18.256734 -81.762488 -3.706001 -18.370821 -145.904907 -77.922080 179.076642 11.746344 -11.144770 -0.480679 11.925111 -11.033971 0.000000 0.000000 0.000000 0.000000 0.000000 0.000000 0.000000 0.453089 -13.281083 4.844594 58.097205 9.225437 19.131884 32.342817 67.471428 0.349669 0.981194 10.318012 0.173771 0.976554 10.323240 0.000000 0.000000 0.000000 0.000000 0.000000 0.000000 0.000000 
